PathFileType	4	(X/Y/Z)	Walk8.trc
DataRate	CameraRate	NumFrames	NumMarkers	Units	OrigDataRate	OrigDataStartFrame	OrigNumFrames
200.000000	200.000000	4	61	mm	200.000000	369	439
Frame#	Times		LFHD		RFHD		LBHD		CLAV		STRN		LASI		RASI		RACR1		RUA1		RFA1		RWRR		RWRU		RCAR		LACR1		LUA1		LFA1		LWRU		LCAR		RTH3		RTH2		RTH4		RMFC		RTB1		RTB3		RTB4		RMT5		LTH1		LTH3		LTH2		LTH4		LLFC		LTB1		LTB3		LTB2		LTB4		LMMAL		LToe		RLFC		RTH1		RElbow		RToe		RTB2		T10		LElbow		RMT1		RMMAL		LMFC		LPSI		RBack		LWRR		LMT5		RBHD		RLMAL		LCAL		RPSI		RCAL		LLMAL		RElbowM		C7		LMT1		LElbowM
			X1	Y1	Z1	X2	Y2	Z2	X3	Y3	Z3	X4	Y4	Z4	X5	Y5	Z5	X6	Y6	Z6	X7	Y7	Z7	X8	Y8	Z8	X9	Y9	Z9	X10	Y10	Z10	X11	Y11	Z11	X12	Y12	Z12	X13	Y13	Z13	X14	Y14	Z14	X15	Y15	Z15	X16	Y16	Z16	X17	Y17	Z17	X18	Y18	Z18	X19	Y19	Z19	X20	Y20	Z20	X21	Y21	Z21	X22	Y22	Z22	X23	Y23	Z23	X24	Y24	Z24	X25	Y25	Z25	X26	Y26	Z26	X27	Y27	Z27	X28	Y28	Z28	X29	Y29	Z29	X30	Y30	Z30	X31	Y31	Z31	X32	Y32	Z32	X33	Y33	Z33	X34	Y34	Z34	X35	Y35	Z35	X36	Y36	Z36	X37	Y37	Z37	X38	Y38	Z38	X39	Y39	Z39	X40	Y40	Z40	X41	Y41	Z41	X42	Y42	Z42	X43	Y43	Z43	X44	Y44	Z44	X45	Y45	Z45	X46	Y46	Z46	X47	Y47	Z47	X48	Y48	Z48	X49	Y49	Z49	X50	Y50	Z50	X51	Y51	Z51	X52	Y52	Z52	X53	Y53	Z53	X54	Y54	Z54	X55	Y55	Z55	X56	Y56	Z56	X57	Y57	Z57	X58	Y58	Z58	X59	Y59	Z59	X60	Y60	Z60	X61	Y61	Z61

369	1.845	1137.1	1583.8	-56.182	1127.9	1583.5	43.243	1008.4	1497.1	-90.216	1124.5	1297.2	-11.177	1146.9	1161.9	-7.4817	1104.8	899.03	-115.22	1099.9	894.07	132.43	1054.9	1330.9	155	1052.8	1162.9	211.41	1146.5	897.36	267.46	1195.3	788.53	264.56	1241.4	820.87	225.79	1263	754.92	272.3	1049.2	1341.3	-166.35	1008.1	1169.6	-222.45	936.76	890.14	-266.22	962.63	766.27	-263.69	912.32	710.2	-290.97	1028.3	553.95	170.9	1086.3	639.48	157.75	1034.6	636.84	183.81	982.81	401.86	23.381	931.55	311.27	123.94	785.19	219.95	109.52	858.47	264.2	117.91	650.33	85.338	121.94	1085.6	734.89	-186.3	1133.2	574.13	-145.77	1162.3	675.27	-150.35	1109.2	653.32	-168.19	1174.7	442	-119.81	1208.5	344.88	-48.762	1191.1	175.48	-36.01	1190.4	256.44	-104.01	1197.1	259.32	-43.396	1147.4	83.108	-0.30869	1332.4	26.236	-29.08	997.06	405.96	151.39	1043.7	722.01	199.99	1053.8	997.23	251.12	699.53	26.631	74.635	830.68	304.14	156.2	936.63	1190.4	-1.8966	951.64	1023.1	-236.68	679.52	68.377	41.864	688.61	200.73	45.197	1146.7	432.73	8.976	926.56	948.61	-44.172	934.17	1277.4	63.732	895.2	779.51	-252.2	1247	23.629	-88.758	997.7	1503.2	51.969	663.25	204.81	123.66	1082.9	35.408	-43.705	927.92	940.28	55.937	628.05	242.83	81.807	1141.8	63.488	-82.103	1027	985.16	176.34	1013.6	1400	-13.361	1275.2	29.904	-4.261	945.43	1005.8	-163.38
370	1.85	1144.4	1584.5	-56.73	1135	1584.4	42.689	1015.9	1497.4	-90.717	1131.8	1297.9	-11.196	1153.9	1162.4	-7.3856	1112	900.14	-115.6	1106.6	894.77	132.28	1062	1331.8	154.73	1059.9	1163.7	211	1151.7	897.01	267.18	1199.1	787.52	264.54	1245.6	819.16	225.78	1266.4	753.18	272.54	1057.1	1342	-166.55	1017.2	1170.1	-223.02	948.76	890.05	-268.1	975.87	766.51	-265.48	926.54	710.09	-293.59	1040.2	553.95	170.75	1096.8	640.49	157.39	1045.1	636.9	183.48	998	401.23	22.688	945.4	311.47	123.05	797.82	221.96	108.76	871.7	265.28	117.06	661.29	89.21	121.88	1092.2	735.66	-186.61	1138.2	574.46	-146.19	1168.3	675.3	-150.68	1114.9	653.87	-168.53	1178.5	441.65	-120.32	1211.5	344.26	-49.388	1192.3	175.05	-36.39	1192.1	255.96	-104.46	1199.2	258.83	-43.868	1147.5	83.167	-0.44363	1332.4	26.153	-29.202	1011.4	405.68	151.08	1052.7	722.31	199.54	1060.3	997.95	250.48	709.32	28.245	75.451	844.69	305.16	155.99	943.69	1191.4	-2.2369	961.94	1023.3	-238.34	690.59	71.337	42.256	700.86	204.1	44.766	1151.1	432.7	8.5651	933.56	949.3	-44.179	941.25	1278.5	63.428	908.21	778.99	-254.68	1246.9	23.661	-89.016	1005	1503.8	51.33	675.67	208.46	123.29	1082.8	35.408	-43.827	934.76	940.84	55.797	640.73	246.98	81.438	1141.7	63.449	-82.243	1033.8	986.1	175.52	1021.2	1400.9	-13.654	1275.1	29.948	-4.3584	955.12	1005.7	-164.89
371	1.855	1151.6	1585.4	-57.265	1142.2	1585.5	42.147	1023.4	1497.9	-91.175	1139	1298.6	-11.164	1160.8	1163	-7.2311	1119.1	901.25	-115.96	1113.3	895.59	132.18	1069	1332.7	154.51	1066.9	1164.5	210.64	1156.9	896.71	266.93	1202.8	786.55	264.55	1249.8	817.47	225.78	1269.6	751.46	272.78	1064.9	1342.7	-166.71	1026.3	1170.6	-223.54	960.87	890.03	-269.95	989.27	766.84	-267.22	940.96	710.07	-296.16	1052	554.17	170.63	1107.2	641.71	157.1	1055.5	637.14	183.21	1013.1	401	22.012	959.4	311.87	122.14	810.76	223.97	107.95	885.15	266.46	116.16	673.17	92.827	121.78	1098.7	736.42	-186.87	1143	574.75	-146.58	1174.1	675.27	-150.99	1120.4	654.39	-168.83	1181.9	441.28	-120.81	1214.4	343.65	-50.011	1193.3	174.63	-36.78	1193.7	255.48	-104.91	1201.1	258.34	-44.34	1147.7	83.215	-0.56609	1332.4	26.138	-29.335	1025.7	405.65	150.78	1061.6	722.78	199.16	1066.7	998.72	249.87	720.34	30.004	76.085	858.86	306.22	155.73	950.71	1192.3	-2.5667	972.26	1023.5	-239.97	702.58	74.206	42.519	713.47	207.33	44.251	1155.1	432.64	8.1728	940.56	950.05	-44.243	948.25	1279.5	63.139	921.37	778.54	-257.13	1246.8	23.708	-89.242	1012.3	1504.6	50.758	688.43	211.87	122.84	1082.7	35.398	-43.927	941.57	941.5	55.606	653.56	250.67	80.969	1141.7	63.405	-82.368	1040.5	987.1	174.75	1028.6	1401.7	-13.905	1275	30.029	-4.4565	964.81	1005.7	-166.39
372	1.86	1158.9	1586.2	-57.784	1149.4	1586.6	41.62	1030.8	1498.5	-91.592	1146.1	1299.4	-11.088	1167.7	1163.7	-7.0221	1126.2	902.35	-116.29	1119.9	896.53	132.1	1076	1333.7	154.34	1073.8	1165.4	210.31	1161.9	896.45	266.71	1206.4	785.65	264.61	1253.8	815.81	225.81	1272.7	749.76	273.02	1072.6	1343.5	-166.82	1035.3	1171.2	-224.03	973.08	890.08	-271.75	1002.8	767.28	-268.9	955.55	710.15	-298.68	1063.7	554.62	170.52	1117.5	643.11	156.9	1065.8	637.58	182.99	1028	401.15	21.367	973.53	312.47	121.22	823.99	225.95	107.11	898.8	267.73	115.25	685.96	96.145	121.61	1105	737.15	-187.09	1147.6	575	-146.92	1179.8	675.17	-151.26	1125.8	654.88	-169.08	1185.1	440.9	-121.27	1217	343.04	-50.616	1194.3	174.22	-37.17	1195.2	255.01	-105.34	1203	257.86	-44.802	1147.8	83.249	-0.6729	1332.4	26.167	-29.47	1040.1	405.88	150.49	1070.4	723.43	198.84	1073.1	999.53	249.29	732.56	31.862	76.524	873.17	307.33	155.42	957.7	1193.3	-2.8894	982.62	1023.8	-241.55	715.48	76.948	42.652	726.43	210.38	43.666	1158.7	432.56	7.801	947.56	950.85	-44.366	955.18	1280.6	62.859	934.68	778.17	-259.55	1246.8	23.762	-89.435	1019.6	1505.5	50.251	701.53	215.02	122.3	1082.7	35.386	-44.004	948.38	942.23	55.365	666.52	253.88	80.419	1141.6	63.357	-82.475	1047.3	988.14	174.02	1035.9	1402.7	-14.12	1274.9	30.13	-4.5507	974.52	1005.7	-167.85
